<svg xmlns="http://www.w3.org/2000/svg" width="80.222" height="28" viewBox="0 0 80.222 28">
  <g id="Group_9306" data-name="Group 9306" transform="translate(-1023.804 -677.08)">
    <text id="Powered_By" data-name="Powered By" transform="translate(1035.804 688.08)" fill="#fff" font-size="10" font-family="Open Sans"><tspan x="0" y="0">Powered By</tspan></text>
    <g id="CIGNERA_logo" data-name="CIGNERA logo" transform="translate(1023.804 693.08)">
      <path id="Path_5293" data-name="Path 5293" d="M144.565-152.846v2.019H140.1c-2.221,0-3.2,1.109-3.2,3.766,0,2.635.961,3.746,3.2,3.746h4.467v2.019H140.1c-3.37,0-5.217-1.9-5.217-5.765,0-3.888,1.86-5.79,5.217-5.79h4.467Z" transform="translate(-134.881 153.069)" fill="#fff"/>
      <path id="Path_5294" data-name="Path 5294" d="M144.129-152.849V-141.3H142.11v-11.553Z" transform="translate(-130.017 153.072)" fill="#fff"/>
      <path id="Path_5295" data-name="Path 5295" d="M154.711-152.849v2.019h-4.758c-2.222,0-3.2,1.109-3.2,3.766,0,2.635.962,3.746,3.2,3.746h1.917a1.469,1.469,0,0,0,1.195-.428,1.469,1.469,0,0,0,.416-1.2,1.3,1.3,0,0,0-.355-1.08,1.3,1.3,0,0,0-1.068-.39h-2.566v-1.76h2.775c2.056,0,3.067,1.267,3.067,3.271a3.271,3.271,0,0,1-.933,2.67,3.271,3.271,0,0,1-2.666.944H149.95c-3.37,0-5.217-1.9-5.217-5.765,0-3.888,1.862-5.788,5.217-5.788Z" transform="translate(-128.255 153.072)" fill="#fff"/>
      <path id="Path_5296" data-name="Path 5296" d="M154.453-141.214h-2.018v-9.238a2.344,2.344,0,0,1,.722-1.895,2.344,2.344,0,0,1,1.929-.623,2.717,2.717,0,0,1,2.807,2.143l3.37,7.376a.772.772,0,0,0,.734.477.622.622,0,0,0,.493-.166.622.622,0,0,0,.194-.483v-9.144h2.034v9.223a2.359,2.359,0,0,1-.721,1.9,2.359,2.359,0,0,1-1.93.635,2.735,2.735,0,0,1-2.824-2.143l-3.37-7.377a.712.712,0,0,0-.72-.5.624.624,0,0,0-.51.165.624.624,0,0,0-.195.5v9.144Z" transform="translate(-123.069 152.99)" fill="#fff"/>
      <path id="Path_5297" data-name="Path 5297" d="M170.852-152.843v2.019h-5.786c-1.213,0-1.744.562-1.744,1.454,0,.939.6,1.369,1.76,1.369h5.679v1.832h-5.735c-1.165,0-1.76.46-1.76,1.4,0,.907.564,1.454,1.744,1.454h5.848v2.019H165.01c-2.737,0-3.848-1.353-3.848-3.153a2.657,2.657,0,0,1,1.658-2.651,2.577,2.577,0,0,1-1.627-2.6c0-1.846,1.151-3.152,3.872-3.152h5.788Z" transform="translate(-117.197 153.066)" fill="#fff"/>
      <path id="Path_5298" data-name="Path 5298" d="M174.772-152.849c2.6,0,3.716,1.611,3.716,3.458a3.4,3.4,0,0,1-2.449,3.469l2.69,4.623h-2.243l-2.634-4.464h-3.011a.254.254,0,0,0-.218.071.254.254,0,0,0-.071.218v4.178h-2.019v-4.566c0-1.3.549-1.83,1.815-1.83h4.5a1.5,1.5,0,0,0,1.177-.435,1.5,1.5,0,0,0,.434-1.177A1.452,1.452,0,0,0,176-150.44a1.452,1.452,0,0,0-1.159-.389H168.5v-2.019Z" transform="translate(-112.254 153.072)" fill="#fff"/>
      <path id="Path_5299" data-name="Path 5299" d="M177.408-141.214h-2.221l4.064-10.27a2.28,2.28,0,0,1,2.432-1.487,2.242,2.242,0,0,1,2.394,1.487l3.9,10.27h-2.245l-3.514-9.293a.544.544,0,0,0-.562-.389.576.576,0,0,0-.579.389Z" transform="translate(-107.758 152.99)" fill="#fff"/>
    </g>
  </g>
</svg>
